<?xml version="1.0" encoding="UTF-8"?>
<!DOCTYPE svg PUBLIC "-//W3C//DTD SVG 1.1//EN" "http://www.w3.org/Graphics/SVG/1.1/DTD/svg11.dtd">
<!-- Creator: CorelDRAW -->
<svg xmlns="http://www.w3.org/2000/svg" xml:space="preserve" width="8.39156in" height="8.73887in" style="shape-rendering:geometricPrecision; text-rendering:geometricPrecision; image-rendering:optimizeQuality; fill-rule:evenodd; clip-rule:evenodd"
viewBox="0 0 8.57796 8.93299"
 xmlns:xlink="http://www.w3.org/1999/xlink">
 <defs>
  <style type="text/css">
   <![CDATA[
    .fil0 {fill:#49C4EB}
    .fil2 {fill:#AD49EB}
    .fil1 {fill:#EB49B4}
   ]]>
  </style>
    <clipPath id="id0">
     <rect x="0.923372" y="0.203525" width="7.65459" height="8.72946"/>
    </clipPath>
    <clipPath id="id1">
     <path d="M0.923372 8.93299l7.65459 0 0 -8.72946 -7.65459 0 0 8.72946z"/>
    </clipPath>
    <clipPath id="id2">
     <rect x="0.923372" y="0.203525" width="7.65459" height="8.72946"/>
    </clipPath>
 </defs>
 <g id="Layer_x0020_1">
  <metadata id="CorelCorpID_0Corel-Layer"/>
  <g id="_163582184">
   <path id="_163935224" class="fil0" d="M5.81852 3.83495c-0.0992794,1.99725 1.39818,2.50213 2.15931,2.50492 -1.5525,0.383322 -5.18963,0.532682 -7.31801,-1.93634 -2.66047,-3.08628 3.43974,-4.69165 5.05929,-4.36126 1.61955,0.330408 0.223498,1.29613 0.0994001,3.79269z"/>
   <path id="_163581560" class="fil1" d="M5.6074 4.36701c-0.682146,1.87977 0.600667,2.80264 1.32734,3.02909 -1.59659,-0.0901077 -5.11685,-1.01679 -6.42517,-4.00248 -1.6354,-3.73212 4.66719,-3.47286 6.118,-2.68087 1.45081,0.792002 -0.167482,1.30455 -1.02017,3.65426z"/>
   <path id="_163580576" class="fil2" d="M5.19098 4.77948c-1.04376,1.54138 -0.0960075,2.66648 0.508326,3.03635 -1.42059,-0.444888 -4.38702,-2.08291 -4.88807,-5.07576 -0.626303,-3.74106 5.00348,-2.07191 6.13267,-1.02669 1.12918,1.04524 -0.448228,1.13938 -1.75292,3.0661z"/>
   <g style="clip-path:url(#id0)">
   </g>
   <g style="clip-path:url(#id1)">
    <image id="_161930848" transform="matrix(1 0 0 1 -3.27241 4.07426)" x="4.19578" y="-3.87073" width="7.65459" height="8.72946" xlink:href="vector bg_Images\vector bg_ImgID1.png"/>
   </g>
   <g style="clip-path:url(#id2)">
   </g>
  </g>
 </g>
</svg>
